<svg width="48" height="51" viewBox="0 0 48 51" fill="none" xmlns="http://www.w3.org/2000/svg">
<path d="M37.189 8.979C36.383 8.979 35.606 9.092 34.86 9.284C33.8 4.544 29.575 1 24.516 1C19.282 1 14.945 4.794 14.077 9.779C12.925 9.268 11.652 8.978 10.31 8.978C5.168 8.978 1 13.146 1 18.288C1 23.43 5.168 27.598 10.31 27.598C14.575 27.598 33.16 27.598 37.189 27.598C42.331 27.598 46.499 23.43 46.499 18.288C46.499 13.146 42.331 8.979 37.189 8.979Z" stroke="black" stroke-width="2" stroke-miterlimit="10" stroke-linecap="round" stroke-linejoin="round"/>
<path d="M15.184 34.11C15.6512 34.11 16.03 33.7312 16.03 33.264C16.03 32.7968 15.6512 32.418 15.184 32.418C14.7168 32.418 14.338 32.7968 14.338 33.264C14.338 33.7312 14.7168 34.11 15.184 34.11Z" stroke="black" stroke-width="2" stroke-miterlimit="10" stroke-linecap="round" stroke-linejoin="round"/>
<path d="M15.184 45.802C15.6512 45.802 16.03 45.4232 16.03 44.956C16.03 44.4888 15.6512 44.11 15.184 44.11C14.7168 44.11 14.338 44.4888 14.338 44.956C14.338 45.4232 14.7168 45.802 15.184 45.802Z" stroke="black" stroke-width="2" stroke-miterlimit="10" stroke-linecap="round" stroke-linejoin="round"/>
<path d="M23.288 38.423C23.7553 38.423 24.134 38.0442 24.134 37.577C24.134 37.1098 23.7553 36.731 23.288 36.731C22.8208 36.731 22.442 37.1098 22.442 37.577C22.442 38.0442 22.8208 38.423 23.288 38.423Z" stroke="black" stroke-width="2" stroke-miterlimit="10" stroke-linecap="round" stroke-linejoin="round"/>
<path d="M23.288 49.485C23.7553 49.485 24.134 49.1062 24.134 48.639C24.134 48.1718 23.7553 47.793 23.288 47.793C22.8208 47.793 22.442 48.1718 22.442 48.639C22.442 49.1062 22.8208 49.485 23.288 49.485Z" stroke="black" stroke-width="2" stroke-miterlimit="10" stroke-linecap="round" stroke-linejoin="round"/>
<path d="M30.788 42.194C31.2553 42.194 31.634 41.8152 31.634 41.348C31.634 40.8808 31.2553 40.502 30.788 40.502C30.3208 40.502 29.942 40.8808 29.942 41.348C29.942 41.8152 30.3208 42.194 30.788 42.194Z" stroke="black" stroke-width="2" stroke-miterlimit="10" stroke-linecap="round" stroke-linejoin="round"/>
<path d="M30.788 32.456C31.2553 32.456 31.634 32.0772 31.634 31.61C31.634 31.1428 31.2553 30.764 30.788 30.764C30.3208 30.764 29.942 31.1428 29.942 31.61C29.942 32.0772 30.3208 32.456 30.788 32.456Z" stroke="black" stroke-width="2" stroke-miterlimit="10" stroke-linecap="round" stroke-linejoin="round"/>
</svg>
