<svg width="52" height="35" viewBox="0 0 52 35" fill="none" xmlns="http://www.w3.org/2000/svg">
<path d="M4.99902 18.289C4.99902 13.147 9.16702 8.979 14.309 8.979C15.115 8.979 15.892 9.092 16.638 9.284C17.698 4.544 21.923 1 26.982 1C32.216 1 36.553 4.794 37.421 9.779C38.573 9.268 39.846 8.978 41.188 8.978C46.33 8.978 50.723 11.949 50.498 18.288C50.274 24.627 40.94 32.627 40.94 32.627" stroke="black" stroke-width="2" stroke-miterlimit="10" stroke-linecap="round" stroke-linejoin="round"/>
<path d="M37.7741 21.128C37.7741 21.128 31.941 29.295 26.774 33.295" stroke="black" stroke-width="2" stroke-miterlimit="10" stroke-linecap="round" stroke-linejoin="round"/>
<path d="M24.8871 21.128C24.8871 21.128 19.0541 29.295 13.8871 33.295" stroke="black" stroke-width="2" stroke-miterlimit="10" stroke-linecap="round" stroke-linejoin="round"/>
<path d="M12 21.128C12 21.128 6.167 29.295 1 33.295" stroke="black" stroke-width="2" stroke-miterlimit="10" stroke-linecap="round" stroke-linejoin="round"/>
</svg>
