<svg width="55" height="42" viewBox="0 0 55 42" fill="none" xmlns="http://www.w3.org/2000/svg">
<path d="M28.4669 11.994C30.1749 9.95901 32.7379 8.66602 35.6019 8.66602C40.7449 8.66602 44.9139 12.835 44.9139 17.978C44.9139 19.264 44.6529 20.489 44.1819 21.603" stroke="black" stroke-width="2" stroke-miterlimit="10" stroke-linecap="round" stroke-linejoin="round"/>
<path d="M28.0389 7.74601L25.0389 4.42001" stroke="black" stroke-width="2" stroke-miterlimit="10" stroke-linecap="round" stroke-linejoin="round"/>
<path d="M38.01 4.848V1" stroke="black" stroke-width="2" stroke-miterlimit="10" stroke-linecap="round" stroke-linejoin="round"/>
<path d="M46.213 9.797L49.46 6.55099" stroke="black" stroke-width="2" stroke-miterlimit="10" stroke-linecap="round" stroke-linejoin="round"/>
<path d="M48.1689 17.201H53.2999" stroke="black" stroke-width="2" stroke-miterlimit="10" stroke-linecap="round" stroke-linejoin="round"/>
<path d="M37.189 21.979C36.383 21.979 35.606 22.092 34.86 22.284C33.8 17.544 29.575 14 24.516 14C19.282 14 14.945 17.794 14.077 22.779C12.925 22.268 11.652 21.978 10.31 21.978C5.168 21.978 1 26.146 1 31.288C1 36.43 5.168 40.598 10.31 40.598C14.575 40.598 33.16 40.598 37.189 40.598C42.331 40.598 46.499 36.43 46.499 31.288C46.499 26.146 42.331 21.979 37.189 21.979Z" stroke="black" stroke-width="2" stroke-miterlimit="10" stroke-linecap="round" stroke-linejoin="round"/>
</svg>
