<svg width="48" height="44" viewBox="0 0 48 44" fill="none" xmlns="http://www.w3.org/2000/svg">
<path d="M37.189 27.599C42.331 27.599 46.499 23.431 46.499 18.289C46.499 13.147 42.331 8.979 37.189 8.979C36.383 8.979 35.606 9.092 34.86 9.284C33.8 4.544 29.575 1 24.516 1C19.282 1 14.945 4.794 14.077 9.779C12.925 9.268 11.652 8.978 10.31 8.978C5.168 8.978 1 13.146 1 18.288C1 23.43 5.168 27.598 10.31 27.598" stroke="black" stroke-width="2" stroke-miterlimit="10" stroke-linecap="round" stroke-linejoin="round"/>
<path d="M9.94801 32.917L6.15601 36.709" stroke="black" stroke-width="2" stroke-miterlimit="10" stroke-linecap="round" stroke-linejoin="round"/>
<path d="M18.198 24.667L12.49 30.375" stroke="black" stroke-width="2" stroke-miterlimit="10" stroke-linecap="round" stroke-linejoin="round"/>
<path d="M11.167 39.636L7.96899 42.834" stroke="black" stroke-width="2" stroke-miterlimit="10" stroke-linecap="round" stroke-linejoin="round"/>
<path d="M28.427 22.375L13.708 37.094" stroke="black" stroke-width="2" stroke-miterlimit="10" stroke-linecap="round" stroke-linejoin="round"/>
<path d="M29.24 30.375L21.615 38" stroke="black" stroke-width="2" stroke-miterlimit="10" stroke-linecap="round" stroke-linejoin="round"/>
<path d="M33.531 26.084L31.156 28.459" stroke="black" stroke-width="2" stroke-miterlimit="10" stroke-linecap="round" stroke-linejoin="round"/>
</svg>
