<svg width="48" height="50" viewBox="0 0 48 50" fill="none" xmlns="http://www.w3.org/2000/svg">
<path d="M9.63604 36.508C10.1033 36.508 10.482 36.1292 10.482 35.662C10.482 35.1947 10.1033 34.816 9.63604 34.816C9.16881 34.816 8.79004 35.1947 8.79004 35.662C8.79004 36.1292 9.16881 36.508 9.63604 36.508Z" stroke="black" stroke-width="2" stroke-miterlimit="10" stroke-linecap="round" stroke-linejoin="round"/>
<path d="M37.319 33.561C37.7863 33.561 38.165 33.1822 38.165 32.715C38.165 32.2478 37.7863 31.869 37.319 31.869C36.8518 31.869 36.473 32.2478 36.473 32.715C36.473 33.1822 36.8518 33.561 37.319 33.561Z" stroke="black" stroke-width="2" stroke-miterlimit="10" stroke-linecap="round" stroke-linejoin="round"/>
<path d="M31.482 45.802C31.9492 45.802 32.328 45.4232 32.328 44.956C32.328 44.4888 31.9492 44.11 31.482 44.11C31.0148 44.11 30.636 44.4888 30.636 44.956C30.636 45.4232 31.0148 45.802 31.482 45.802Z" stroke="black" stroke-width="2" stroke-miterlimit="10" stroke-linecap="round" stroke-linejoin="round"/>
<path d="M37.189 8.979C36.383 8.979 35.606 9.092 34.86 9.284C33.8 4.544 29.575 1 24.516 1C19.282 1 14.945 4.794 14.077 9.779C12.925 9.268 11.652 8.978 10.31 8.978C5.168 8.978 1 13.146 1 18.288C1 23.43 5.168 27.598 10.31 27.598C14.575 27.598 33.16 27.598 37.189 27.598C42.331 27.598 46.499 23.43 46.499 18.288C46.499 13.146 42.331 8.979 37.189 8.979Z" stroke="black" stroke-width="2" stroke-miterlimit="10" stroke-linecap="round" stroke-linejoin="round"/>
<path d="M19.803 27.6L16.511 38.64L22.011 37.89L18.511 48.015L30.636 33.64L24.261 33.015L28.011 27.6H19.803Z" stroke="black" stroke-width="2" stroke-miterlimit="10" stroke-linecap="round" stroke-linejoin="round"/>
</svg>
